<?xml version="1.0" ?><svg enable-background="new 0 0 32 32" height="26px" id="svg2" version="1.1" viewBox="0 0 32 32" width="26px" xmlSpace="preserve" xmlns="http://www.w3.org/2000/svg" xmlnsCc="http://creativecommons.org/ns#" xmlnsDc="http://purl.org/dc/elements/1.1/" xmlnsInkscape="http://www.inkscape.org/namespaces/inkscape" xmlnsRdf="http://www.w3.org/1999/02/22-rdf-syntax-ns#" xmlnsSodipodi="http://sodipodi.sourceforge.net/DTD/sodipodi-0.dtd" xmlnsSvg="http://www.w3.org/2000/svg"><g id="background"><rect fill="none" height="16" width="16" x="0.074" y="0"/></g><g fill="#ff7700" id="calendar"><g><rect height="4" width="2" x="14.076" y="20"/><rect height="4" width="2" x="14.076" y="14"/><rect height="2" width="6" x="8.076" y="12"/><rect height="2" width="6" x="8.074" y="24"/><rect height="2" width="4" x="10.076" y="18"/></g><g><rect height="14" width="2" x="20.076" y="12"/><rect height="2" width="4" x="18.076" y="12"/><rect height="2" width="6" x="18.074" y="24"/></g><path d="M28.074,1.926V0h-2v1.926h-20V0h-2v1.926H0v30.147h32.147V1.926H28.074z M29.999,29.925H2.148V6h1.926v2h2V6h20v2h2V6   h1.925V29.925z"/></g></svg>