<?xml version="1.0" ?><!DOCTYPE svg  PUBLIC '-//W3C//DTD SVG 1.1//EN'  'http://www.w3.org/Graphics/SVG/1.1/DTD/svg11.dtd'><svg  height="32px" style="fill-rule:evenodd;clip-rule:evenodd;stroke-linejoin:round;stroke-miterlimit:2;" version="1.1" viewBox="0 0 32 32" width="32px" xmlSpace="preserve" xmlns="http://www.w3.org/2000/svg" xmlnsSerif="http://www.serif.com/" xmlnsXlink="http://www.w3.org/1999/xlink"><path d="M18.096,14.805c-1.481,0.641 -2.689,1.795 -3.399,3.238c-0.4,-0.291 -0.833,-0.539 -1.293,-0.738c1.283,-1.101 2.096,-2.734 2.096,-4.555c0,-3.311 -2.689,-6 -6,-6c-3.311,0 -6,2.689 -6,6c0,1.821 0.813,3.454 2.096,4.555c-2.41,1.042 -4.096,3.44 -4.096,6.233l0,1.669c0,1.405 1.138,2.543 2.543,2.543l10.914,-0c1.39,-0 2.52,-1.115 2.543,-2.5l9.957,-0c1.405,-0 2.543,-1.138 2.543,-2.543l-0,-1.669c-0,-2.793 -1.686,-5.191 -4.096,-6.233c1.283,-1.101 2.096,-2.734 2.096,-4.555c-0,-3.311 -2.689,-6 -6,-6c-3.311,0 -6,2.689 -6,6c-0,1.821 0.813,3.454 2.096,4.555Zm-7.384,3.945l-2.424,-0c-2.644,0 -4.788,2.144 -4.788,4.788c0,-0 0,1.669 0,1.669c0,0.3 0.243,0.543 0.543,0.543c-0,-0 10.914,0 10.914,-0c0.3,-0 0.543,-0.243 0.543,-0.543l-0,-1.669l-0,-0.057l-0.001,-0.047l-0,-0.009l-0.002,-0.047l-0.002,-0.057l-0.003,-0.055l-0.003,-0.054c-0.07,-1.036 -0.471,-1.981 -1.114,-2.717c-0.051,-0.058 -0.094,-0.121 -0.13,-0.188c-0.875,-0.957 -2.134,-1.557 -3.533,-1.557Zm12.5,-2.5l-2.424,-0c-2.136,0 -3.946,1.399 -4.56,3.331c0.748,1.042 1.209,2.303 1.266,3.669l9.963,-0c0.3,-0 0.543,-0.243 0.543,-0.543c0,0 -0,-1.669 -0,-1.669c-0,-2.644 -2.144,-4.788 -4.788,-4.788Zm-13.712,0.5c-2.208,-0 -4,-1.792 -4,-4c0,-2.208 1.792,-4 4,-4c2.208,0 4,1.792 4,4c0,2.208 -1.792,4 -4,4Zm12.5,-2.5c-2.208,-0 -4,-1.792 -4,-4c-0,-2.208 1.792,-4 4,-4c2.208,0 4,1.792 4,4c-0,2.208 -1.792,4 -4,4Z"/></svg>